<?xml version="1.0" encoding="UTF-8"?>
<svg version="1.1" xmlns="http://www.w3.org/2000/svg" width="1131" height="1600">
<path d="M0 0 C373.23 0 746.46 0 1131 0 C1131 528 1131 1056 1131 1600 C757.77 1600 384.54 1600 0 1600 C0 1072 0 544 0 0 Z " fill="#FEFEFE" transform="translate(0,0)"/>
<path d="M0 0 C3.96061739 1.2639029 7.7122817 2.72983487 11.5 4.4375 C32.25531793 13.07702889 52.60310942 11.15008593 73 3 C74.3921875 2.1646875 74.3921875 2.1646875 75.8125 1.3125 C78 0 78 0 81 0 C81.69222656 1.22009766 81.69222656 1.22009766 82.3984375 2.46484375 C87.84279783 12.03013295 93.40052047 21.5248437 99 31 C99.51256348 31.86753906 100.02512695 32.73507812 100.55322266 33.62890625 C102.75737145 37.35931035 104.9617083 41.08960273 107.16699219 44.81933594 C111.01709321 51.33191061 114.8544813 57.85184611 118.68579102 64.37548828 C120.75028791 67.88737933 122.82921438 71.38914139 124.9375 74.875 C128.3164839 80.47473252 131.55580928 86.15518115 134.82080078 91.82177734 C138.12412239 97.5359047 141.52394208 103.17046117 145.05078125 108.75 C146.70305188 111.5048881 148.24610065 114.27874327 149.76953125 117.10546875 C153.11884515 123.28970215 156.72948717 129.29951228 160.375 135.3125 C165.05423186 143.06902361 169.67838106 150.84093738 174.13671875 158.7265625 C176.66595373 163.16995645 179.26472394 167.5709738 181.86401367 171.97363281 C184.41313487 176.29456902 186.9476908 180.6235572 189.46875 184.9609375 C190.06985596 185.99452393 190.67096191 187.02811035 191.2902832 188.09301758 C192.50648305 190.18572286 193.72118213 192.27930109 194.93432617 194.3737793 C197.45586224 198.71190961 199.981131 203.03258645 202.70703125 207.24609375 C203.09165527 207.84325195 203.4762793 208.44041016 203.87255859 209.05566406 C204.84784467 210.55011893 205.8428848 212.03163391 206.83984375 213.51171875 C208 216 208 216 208.1015625 218.56640625 C206.48855144 222.12990232 203.73961433 223.44633105 200.4375 225.25 C199.7772583 225.62697021 199.1170166 226.00394043 198.43676758 226.39233398 C197.03032045 227.19249976 195.61959717 227.98518781 194.20507812 228.77099609 C191.96285302 230.02070393 189.73822502 231.29778699 187.515625 232.58203125 C186.07345724 233.40979669 184.6307634 234.23664636 183.1875 235.0625 C182.50034912 235.45663086 181.81319824 235.85076172 181.10522461 236.25683594 C176.23346838 239 176.23346838 239 174 239 C173.67 239.99 173.34 240.98 173 242 C171.02 242.33 169.04 242.66 167 243 C166.46375 241.89140625 165.9275 240.7828125 165.375 239.640625 C162.8196698 234.53444763 159.92521073 229.65094972 157 224.75 C156.42894531 223.78835938 155.85789062 222.82671875 155.26953125 221.8359375 C151.04425385 214.72851724 146.79008531 207.6384185 142.52807617 200.55297852 C138.20116173 193.35378386 133.92766853 186.12361502 129.66210938 178.88793945 C125.81365505 172.36364317 121.92532096 165.86503167 118 159.38671875 C116.49596343 156.83984433 115.04309766 154.28532915 113.6171875 151.6953125 C110.90584065 146.78578624 108.02777173 141.98562733 105.125 137.1875 C101.79675433 131.6662832 98.4789293 126.14244694 95.25 120.5625 C93.06432757 116.78961307 90.81044064 113.07269239 88.5 109.375 C83.55742843 101.40656276 78.92994845 93.2537378 74.27929688 85.11279297 C73.65603516 84.02498535 73.03277344 82.93717773 72.390625 81.81640625 C71.83407227 80.84131104 71.27751953 79.86621582 70.70410156 78.86157227 C69.46778489 76.78551672 68.15088419 74.75678573 66.78808594 72.76147461 C65 70 65 70 65 68 C64.34 68 63.68 68 63 68 C63 134.66 63 201.32 63 270 C47.16 270 31.32 270 15 270 C15 203.34 15 136.68 15 68 C14.34 68 13.68 68 13 68 C12.72671875 68.71824951 12.4534375 69.43649902 12.171875 70.17651367 C8.6844442 78.57904226 3.65248464 86.38849526 -1 94.1875 C-2.13989101 96.1077358 -3.2791923 98.02832176 -4.41796875 99.94921875 C-5.00368652 100.93712402 -5.5894043 101.9250293 -6.19287109 102.94287109 C-13.5068641 115.31598923 -20.7331571 127.74109146 -27.83984375 140.234375 C-31.30307069 146.29460083 -34.84422807 152.31000602 -38.36621094 158.33618164 C-42.85429389 166.02127966 -47.3089654 173.72513237 -51.75 181.4375 C-56.34218521 189.41185487 -60.96139973 197.36828913 -65.64331055 205.2902832 C-67.81699109 208.9727914 -69.96378016 212.66838942 -72.07519531 216.38696289 C-73.36653737 218.66022306 -74.66966866 220.92668688 -75.97167969 223.19384766 C-76.7003124 224.47362563 -77.42159363 225.75760195 -78.13769531 227.04443359 C-79.30615189 229.14254162 -80.49518751 231.22787783 -81.6875 233.3125 C-82.22225952 234.29210693 -82.22225952 234.29210693 -82.76782227 235.29150391 C-84.39655277 238.10028297 -85.46965038 239.77612968 -88.5078125 241.05859375 C-91.48770091 240.98853368 -92.71084951 240.39207792 -95.1875 238.75 C-96.47140625 237.92628906 -96.47140625 237.92628906 -97.78125 237.0859375 C-99.37453125 236.05339844 -99.37453125 236.05339844 -101 235 C-104.05307718 233.10952781 -107.12097858 231.2435591 -110.1875 229.375 C-110.94764404 228.90803711 -111.70778809 228.44107422 -112.4909668 227.95996094 C-115.95685791 225.83349902 -119.42679553 223.75182878 -122.98828125 221.7890625 C-126 220 -126 220 -127 218 C-125.95532227 215.68432617 -125.95532227 215.68432617 -124.31640625 212.79296875 C-123.72206787 211.73722656 -123.12772949 210.68148437 -122.51538086 209.59375 C-121.87093018 208.4696875 -121.22647949 207.345625 -120.5625 206.1875 C-119.59485718 204.48013672 -119.59485718 204.48013672 -118.60766602 202.73828125 C-114.78435715 196.02239741 -110.89730313 189.36297027 -106.74609375 182.84375 C-104.83711658 179.7347223 -103.07510013 176.56363948 -101.31420898 173.36914062 C-99.19617631 169.55093719 -97.00438271 165.77614627 -94.8125 162 C-94.33619141 161.17822266 -93.85988281 160.35644531 -93.36914062 159.50976562 C-89.8577271 153.45897226 -86.31563692 147.4266736 -82.76196289 141.40063477 C-79.27160651 135.47625905 -75.82398654 129.52776241 -72.38452148 123.57373047 C-68.63063457 117.07900351 -64.84834953 110.60113555 -61.0625 104.125 C-56.55954846 96.42075536 -52.09988251 88.69395169 -47.6875 80.9375 C-43.67908352 73.89605708 -39.58843131 66.91502033 -35.3984375 59.98046875 C-27.47803205 46.8641963 -19.76090095 33.63276604 -12.19506836 20.30932617 C-8.28252229 13.44078068 -4.21735404 6.68574655 0 0 Z " fill="#646464" transform="translate(513,677)"/>
<path d="M0 0 C1.51526371 2.30420267 2.8943485 4.60271948 4.25 7 C5.14830717 8.55866887 6.04675278 10.11725796 6.9453125 11.67578125 C7.43290039 12.52736816 7.92048828 13.37895508 8.42285156 14.25634766 C10.69372072 18.20681633 12.9985394 22.13719491 15.30053711 26.06958008 C20.25200901 34.53140901 25.16984449 43.01069159 30.01953125 51.53125 C36.33829931 62.59844139 42.75532107 73.60861398 49.22998047 84.58520508 C52.81860905 90.67540624 56.35865202 96.79312871 59.89453125 102.9140625 C62.90638378 108.12329477 65.94277689 113.31727891 69 118.5 C72.99808989 125.27771429 76.94916486 132.08161324 80.88354492 138.89648438 C84.40899903 144.99686271 87.9802995 151.06911731 91.57543945 157.12866211 C93.8937154 161.05401488 96.08377022 165.01643771 98.1875 169.0625 C102.61367497 177.23294624 108.72373785 184.57978405 117.8203125 187.60546875 C126.05859178 189.09662683 134.07319712 189.11722276 141.1796875 184.41015625 C149.2677582 178.14450492 154.07296984 169.08542531 159.0625 160.3125 C160.01865789 158.64663383 160.97572795 156.98129097 161.93359375 155.31640625 C162.43101074 154.45160645 162.92842773 153.58680664 163.44091797 152.69580078 C170.02822235 141.30572641 176.77741487 130.00740539 183.56274414 118.734375 C187.31103253 112.49926565 191.00676433 106.23328744 194.7043457 99.96801758 C199.53460782 91.78392884 204.37965542 83.60866113 209.22695923 75.43466187 C213.24868329 68.65211265 217.26088432 61.86427473 221.25 55.0625 C225.29505653 48.16699702 229.40614304 41.31217314 233.52685547 34.46166992 C237.25862388 28.25189642 240.94569564 22.0171031 244.61083984 15.76782227 C247.70635594 10.49117163 250.83547554 5.23561568 254 0 C259.05578159 0.56616808 262.8617752 2.9478944 267.1875 5.4375 C268.78243536 6.34005006 270.37749124 7.24238714 271.97265625 8.14453125 C273.20459717 8.84570068 273.20459717 8.84570068 274.46142578 9.56103516 C278.66652391 11.94465204 282.89675878 14.28276741 287.125 16.625 C288.64855507 17.47114251 290.1720036 18.31747689 291.6953125 19.1640625 C292.78585937 19.76992188 293.87640625 20.37578125 295 21 C294.41097048 25.3855049 292.78826209 28.44994726 290.53515625 32.234375 C290.1864447 32.82473038 289.83773315 33.41508575 289.47845459 34.02333069 C288.34646796 35.93626524 287.20456169 37.84306666 286.0625 39.75 C285.27558171 41.07599842 284.48937084 42.40241691 283.70385742 43.72924805 C282.16099993 46.33322161 280.61460001 48.93502729 279.06445312 51.53466797 C276.63035236 55.61744906 274.21865536 59.71320119 271.8125 63.8125 C271.24329834 64.77929688 271.24329834 64.77929688 270.66259766 65.765625 C267.23756596 71.58403512 263.83739229 77.41687469 260.4375 83.25 C248.20128233 104.24329504 235.9073511 125.20321131 223.5625 146.1328125 C219.17770739 153.57106989 214.82009737 161.02395781 210.5 168.5 C205.75185115 176.71319485 200.98483171 184.91419239 196.13916016 193.0703125 C195.06270411 194.89378198 194.00448647 196.72671491 192.94921875 198.5625 C181.78285626 217.53860299 165.96914405 229.84441565 144.70581055 235.39819336 C130.04196397 238.91611665 116.23579414 237.53894886 102 233 C101.10152344 232.73445312 100.20304688 232.46890625 99.27734375 232.1953125 C78.08385178 224.95851036 64.85465008 205.72239344 55.0390625 186.76953125 C52.12461802 181.15048229 48.94457422 175.71202871 45.71313477 170.27050781 C43.07593756 165.82944544 40.48537705 161.36797603 37.9375 156.875 C33.06903738 148.32335439 28.0462827 139.85899512 22.828125 131.515625 C19.3258611 125.90673619 16.07555995 120.32623976 13.1953125 114.375 C11.04555766 110.10359169 8.49861377 106.07370363 6 102 C1.08012315 93.89940882 -3.72994809 85.75909726 -8.34082031 77.47851562 C-12.19497144 70.58926176 -16.22780575 63.80809031 -20.25708008 57.02026367 C-23.99713921 50.71445896 -27.67403252 44.37921676 -31.2734375 37.9921875 C-33.41658537 34.27804435 -35.71200843 30.66951444 -38.06640625 27.0859375 C-39 25 -39 25 -39.078125 22.9765625 C-37.34254219 19.79466068 -34.30177007 18.60536652 -31.1875 17 C-29.73916267 16.22325585 -28.29263521 15.44313027 -26.84765625 14.66015625 C-26.0705127 14.24008301 -25.29336914 13.82000977 -24.49267578 13.38720703 C-19.05726555 10.36232937 -13.77632601 7.0666781 -8.47729492 3.81054688 C-7.66236572 3.31490234 -6.84743652 2.81925781 -6.0078125 2.30859375 C-5.28223145 1.86314209 -4.55665039 1.41769043 -3.80908203 0.95874023 C-2 0 -2 0 0 0 Z " fill="#343434" transform="translate(426,449)"/>
<path d="M0 0 C1.32 0 2.64 0 4 0 C5.77370091 2.50278695 7.23230344 4.88133051 8.6875 7.5625 C9.56817893 9.12416711 10.44970689 10.6853557 11.33203125 12.24609375 C11.77498535 13.03999512 12.21793945 13.83389648 12.67431641 14.65185547 C14.6697967 18.18639129 16.76938458 21.65533323 18.875 25.125 C20.25801031 27.41210605 21.63111607 29.70432306 23 32 C23.56702637 32.94697754 23.56702637 32.94697754 24.14550781 33.91308594 C27 38.76747695 27 38.76747695 27 41 C26.20275513 41.43699219 26.20275513 41.43699219 25.3894043 41.8828125 C19.46558897 45.14935334 13.62847624 48.54575851 7.8125 52 C5.86982257 53.15109382 3.9271133 54.30213391 1.984375 55.453125 C0.99630859 56.03900391 0.00824219 56.62488281 -1.00976562 57.22851562 C-4.88202496 59.5225321 -8.75852919 61.80931796 -12.63500977 64.09619141 C-29.14451998 73.83845863 -29.14451998 73.83845863 -45.53125 83.78515625 C-46.31532227 84.26710449 -47.09939453 84.74905273 -47.90722656 85.24560547 C-49.40558551 86.16779262 -50.90247834 87.09236889 -52.39746094 88.02001953 C-56.31649308 90.433052 -60.27743862 92.71664885 -64.328125 94.90234375 C-70.16000175 98.05412266 -75.83117882 101.44056112 -81.5 104.875 C-91.81033938 111.09382338 -102.15339135 117.25337847 -112.52539062 123.36865234 C-119.10340812 127.25495038 -119.10340812 127.25495038 -125.61523438 131.25048828 C-126.20987488 131.62142105 -126.80451538 131.99235382 -127.41717529 132.37452698 C-129.0837657 133.41751553 -130.74658239 134.466527 -132.40917969 135.51586914 C-135 137 -135 137 -137 137 C-137 137.66 -137 138.32 -137 139 C-136.29488281 139.268125 -135.58976563 139.53625 -134.86328125 139.8125 C-125.01595726 143.89651977 -116.00948086 149.78578063 -107.02734375 155.46484375 C-96.86579038 161.88484359 -86.46679218 167.90490646 -76.05639648 173.90942383 C-69.25155705 177.83965702 -62.50562754 181.86123695 -55.77978516 185.92480469 C-45.59397635 192.07820688 -35.36427162 198.15509844 -25.11499023 204.20214844 C-19.89804621 207.28188484 -14.6897288 210.37463323 -9.5 213.5 C-3.18493049 217.30176503 3.15475827 221.0613301 9.5 224.8125 C10.43263672 225.36421875 11.36527344 225.9159375 12.32617188 226.484375 C17.19656541 229.36089624 22.08012559 232.2089174 27 235 C25.34998891 239.63445739 22.95159384 243.6732396 20.4375 247.875 C19.99857422 248.61516357 19.55964844 249.35532715 19.10742188 250.11791992 C16.88759431 253.8557178 14.65109809 257.58342519 12.41015625 261.30859375 C12.00418213 261.9835791 11.59820801 262.65856445 11.17993164 263.35400391 C10.41145748 264.62954699 9.64120114 265.90401861 8.86889648 267.17724609 C7.12337541 270.06641225 5.44660297 272.94857187 4 276 C1.15804128 275.38812688 -1.12846773 274.52282625 -3.66015625 273.1015625 C-4.36172852 272.7101709 -5.06330078 272.3187793 -5.78613281 271.91552734 C-6.53733398 271.48965332 -7.28853516 271.0637793 -8.0625 270.625 C-8.85108398 270.18236816 -9.63966797 269.73973633 -10.45214844 269.28369141 C-17.85648626 265.11381857 -25.20895232 260.85403513 -32.5546875 256.58203125 C-39.42974124 252.58399044 -46.34188197 248.65096968 -53.25390625 244.71728516 C-64.73415226 238.1824822 -76.178168 231.59100234 -87.56591797 224.89599609 C-92.16231791 222.20182647 -96.77474229 219.5586473 -101.4609375 217.0234375 C-108.42035042 213.25659789 -115.22038598 209.22501699 -122.0390625 205.2109375 C-127.81566023 201.82259723 -133.62689223 198.52764158 -139.52734375 195.359375 C-142.05891334 193.96761162 -144.5318658 192.50098647 -147 191 C-151.36584922 188.35004715 -155.81114194 185.88303377 -160.3046875 183.45703125 C-164.22235815 181.33921798 -168.11111711 179.17009268 -172 177 C-172 176.34 -172 175.68 -172 175 C-172.99 174.67 -173.98 174.34 -175 174 C-176.20751953 172.38037109 -176.20751953 172.38037109 -177.3828125 170.2734375 C-177.82351074 169.49597168 -178.26420898 168.71850586 -178.71826172 167.91748047 C-179.18248535 167.07846191 -179.64670898 166.23944336 -180.125 165.375 C-181.10830107 163.6348094 -182.09269036 161.89523329 -183.078125 160.15625 C-183.56861328 159.28613281 -184.05910156 158.41601562 -184.56445312 157.51953125 C-186.60732695 153.93407923 -188.73493688 150.40298932 -190.875 146.875 C-192.25205212 144.58455987 -193.62580516 142.29215699 -195 140 C-195.56203125 139.06929687 -196.1240625 138.13859375 -196.703125 137.1796875 C-197.17234375 136.37789062 -197.6415625 135.57609375 -198.125 134.75 C-198.51945313 134.08484375 -198.91390625 133.4196875 -199.3203125 132.734375 C-200 131 -200 131 -199 128 C-197.1796875 126.421875 -197.1796875 126.421875 -194.875 124.75 C-187.3434547 119.04464556 -181.97675266 113.03936968 -177 105 C-177.495 104.01 -177.495 104.01 -178 103 C-177.01 101.68 -176.02 100.36 -175 99 C-175 99.66 -175 100.32 -175 101 C-173.93523438 100.3709375 -172.87046875 99.741875 -171.7734375 99.09375 C-157.92322548 90.9215142 -143.95395669 82.97164075 -129.95166016 75.0637207 C-112.20112759 65.03376048 -94.45025418 54.98377522 -76.9140625 44.58203125 C-67.60276337 39.0596234 -58.19419871 33.73506374 -48.73657227 28.46704102 C-39.21569653 23.15046882 -29.79666263 17.66881502 -20.390625 12.15234375 C-14.7291075 8.83321446 -9.03163114 5.58102889 -3.31640625 2.35546875 C-1.11286168 1.19725366 -1.11286168 1.19725366 0 0 Z " fill="#A6A6A6" transform="translate(795,546)"/>
<path d="M0 0 C3.09622777 0.63471149 5.44579498 1.68594033 8.16015625 3.29296875 C9.34134033 3.98604126 9.34134033 3.98604126 10.54638672 4.69311523 C11.3767041 5.18626221 12.20702148 5.67940918 13.0625 6.1875 C14.7949797 7.20413659 16.52804811 8.21977066 18.26171875 9.234375 C19.08978027 9.71970703 19.9178418 10.20503906 20.77099609 10.70507812 C23.28125367 12.16339205 25.81668265 13.56534918 28.375 14.9375 C32.00457111 16.88437438 35.58660416 18.90295722 39.15625 20.95703125 C40.56318115 21.76636108 40.56318115 21.76636108 41.99853516 22.59204102 C43.88526761 23.67953042 45.77041793 24.76977036 47.65380859 25.86303711 C48.52859863 26.36714111 49.40338867 26.87124512 50.3046875 27.390625 C51.08827637 27.84469727 51.87186523 28.29876953 52.67919922 28.76660156 C55.0660085 30.03508047 57.49165598 30.99906321 60 32 C62.17613713 33.36460195 64.30911446 34.75310114 66.4375 36.1875 C70.96646046 39.16950965 75.4763528 41.83710869 80.375 44.1875 C86.9103323 47.34575768 93.12672764 50.9339742 99.375 54.625 C109.62676156 60.67455754 120.01921709 66.40530452 130.50390625 72.0390625 C141.52045186 77.95868272 152.3931016 84.1256563 163.11865234 90.55810547 C166.7027417 92.70019481 170.25386469 94.59141566 174.0625 96.3125 C179.0448709 99.01286896 181.04448533 103.70808535 183.76171875 108.5 C186.07369224 112.3393938 188.94589161 115.4245705 192.125 118.5625 C192.61589111 119.05049072 193.10678223 119.53848145 193.61254883 120.04125977 C196.85529959 123.15584285 200.21617414 125.61405639 204 128 C202.68772214 132.44459939 200.93959323 135.98285498 198.4375 139.875 C195.70425308 144.19500825 193.07578191 148.55174305 190.58203125 153.01489258 C189.81450949 154.3880165 189.03833871 155.75633915 188.25390625 157.11987305 C186.53376257 160.1275906 185.00074455 162.998125 183.71875 166.2265625 C178.84250221 177.4954522 167.36571026 181.34512563 156.91333008 186.50683594 C153.36328571 188.32633408 149.98249613 190.35699774 146.58374023 192.44189453 C140.5603511 196.07425487 134.34974096 199.39590336 128.18945312 202.7890625 C122.63518039 205.8736372 117.29046922 209.08749554 112.04467773 212.66894531 C108.93358308 214.6942215 105.66173785 216.28650433 102.3125 217.875 C96.16813473 220.87411181 90.21935596 224.09191853 84.3046875 227.52734375 C78.35092722 230.97042856 72.32606099 234.28793559 66.3125 237.625 C65.17192139 238.25865479 64.03134277 238.89230957 62.85620117 239.54516602 C57.60957681 242.45657664 52.35690658 245.35553251 47.0859375 248.22265625 C43.1334946 250.37416307 39.21206268 252.56670418 35.3125 254.8125 C29.46807383 258.17115816 23.59726933 261.48041663 17.70947266 264.76245117 C13.01315653 267.39222662 8.43090092 270.16543795 3.91796875 273.1015625 C2 274 2 274 -1 273 C-2.21875 271.19921875 -2.21875 271.19921875 -3.5 268.6875 C-4.01304687 267.70652344 -4.52609375 266.72554687 -5.0546875 265.71484375 C-5.35213867 265.14233887 -5.64958984 264.56983398 -5.95605469 263.97998047 C-8.12177724 259.87240097 -10.3829045 255.81621735 -12.625 251.75 C-13.09228516 250.89881592 -13.55957031 250.04763184 -14.04101562 249.1706543 C-14.49412109 248.34605713 -14.94722656 247.52145996 -15.4140625 246.671875 C-15.85008789 245.87716797 -16.28611328 245.08246094 -16.73535156 244.26367188 C-17.90024664 242.17855466 -19.11243499 240.12913272 -20.3359375 238.078125 C-22 235 -22 235 -22 232 C16.28394721 209.87896999 16.28394721 209.87896999 35.38378906 199.1574707 C47.86560775 192.15408143 47.86560775 192.15408143 60.1875 184.875 C65.36551479 181.74272548 70.67417391 178.87138334 76 176 C81.2589611 173.16401574 86.36861618 170.16582919 91.4375 167 C95.22571686 164.64717933 98.98210596 162.43381567 103 160.5 C108.15444395 158.01884951 112.92220752 155.00933575 117.76953125 151.98046875 C122.41561327 149.13214519 127.19382761 146.56513074 132 144 C134.06348372 142.87680537 136.126007 141.7518442 138.1875 140.625 C139.79166667 139.75 141.39583333 138.875 143 138 C143 137.34 143 136.68 143 136 C142.2678125 135.58492187 141.535625 135.16984375 140.78125 134.7421875 C134.97805675 131.4398942 129.18888871 128.11689521 123.4296875 124.73828125 C113.1485904 118.70710816 102.84424211 112.75163108 92.37744141 107.0480957 C84.53150401 102.76656342 76.7800029 98.3264459 69.02734375 93.87890625 C64.30125847 91.16829052 59.56133234 88.48303777 54.8125 85.8125 C53.81428223 85.25054932 53.81428223 85.25054932 52.79589844 84.67724609 C49.42718267 82.78397728 49.42718267 82.78397728 46 81 C46 80.34 46 79.68 46 79 C45.33355469 78.92652344 44.66710937 78.85304688 43.98046875 78.77734375 C39.95401439 77.72719379 36.83775191 75.72957315 33.3125 73.5625 C31.79282388 72.64781421 30.27195022 71.73511564 28.75 70.82421875 C27.96753906 70.3554834 27.18507813 69.88674805 26.37890625 69.40380859 C22.56458134 67.15294979 18.69168855 65.01153385 14.8125 62.875 C8.04701356 59.14317673 1.32243668 55.34867017 -5.375 51.49609375 C-6.89701479 50.62863592 -8.43308913 49.78345544 -10 49 C-10 48.34 -10 47.68 -10 47 C-10.99 46.9071875 -10.99 46.9071875 -12 46.8125 C-16.18657836 45.67863503 -19.42550992 43.40368936 -23 41 C-21.52732763 37.01642124 -19.63776528 33.4791179 -17.5 29.8125 C-13.70762766 23.27490955 -10.03542074 16.67607029 -6.4140625 10.04223633 C-4.46961 6.51088239 -2.56174847 3.13378939 0 0 Z " fill="#A6A6A6" transform="translate(308,547)"/>
<path d="M0 0 C15.84 0 31.68 0 48 0 C48.13542815 26.3470256 48.24595979 52.6937695 48.31087303 79.04105473 C48.34181415 91.27448548 48.38399997 103.50768467 48.45263672 115.7409668 C48.5124304 126.40320964 48.55114728 137.06528479 48.56453097 147.72769064 C48.57235469 153.37371068 48.59074816 159.01925095 48.63438034 164.66511726 C48.67512044 169.9798412 48.68766601 175.29388795 48.67864609 180.6087532 C48.68029608 182.55865726 48.69222253 184.50858407 48.71523285 186.45835304 C48.74514255 189.12358218 48.73789199 191.78626377 48.7215271 194.45155334 C48.73900415 195.22102596 48.7564812 195.99049857 48.77448785 196.78328854 C48.68649643 202.09436659 47.1466158 204.76346884 43.5015198 208.59914583 C41.72697114 210.25472433 39.96979379 211.64526276 37.875 212.875 C37.23304688 213.26429688 36.59109375 213.65359375 35.9296875 214.0546875 C29.43095111 217.23827901 20.55305057 217.13769294 13.75 214.9375 C8.08926893 212.46241047 3.39485621 208.09228431 0 203 C-0.18936981 200.27638952 -0.26082103 197.6560615 -0.24050903 194.93257141 C-0.24221788 194.10104701 -0.24392673 193.2695226 -0.24568737 192.41280049 C-0.24899088 189.61666637 -0.23796441 186.82077035 -0.22705078 184.0246582 C-0.22648685 182.02424119 -0.22680287 180.02382376 -0.22793579 178.02340698 C-0.22851102 172.58363942 -0.21672913 167.14395956 -0.20278788 161.70421243 C-0.19030891 156.02271736 -0.18911226 150.34122041 -0.18673706 144.65971375 C-0.18051395 133.89688174 -0.16409189 123.13409023 -0.14403808 112.37127608 C-0.12170493 100.11993377 -0.11069216 87.86858955 -0.10064721 75.61723197 C-0.07972638 50.41146033 -0.04303977 25.20574424 0 0 Z " fill="#A6A6A6" transform="translate(528,420)"/>
<path d="M0 0 C3.94608365 2.04611745 6.79212013 4.13818436 9 8 C9.3169967 10.8922263 9.4680111 13.56402176 9.46875 16.45703125 C9.48017029 17.68881355 9.48017029 17.68881355 9.49182129 18.94548035 C9.50261228 20.681152 9.50547944 22.41688853 9.50097656 24.15258789 C9.50000694 26.79359867 9.54157856 29.43167623 9.5859375 32.07226562 C9.59114711 33.76301481 9.59383265 35.45377404 9.59375 37.14453125 C9.6183429 38.31832085 9.6183429 38.31832085 9.64343262 39.51582336 C9.56890984 45.50099445 7.88361673 48.45099685 4 53 C0.59681313 55.3425378 -2.62294643 55.53071916 -6.67578125 55.45703125 C-10.72458526 54.66087987 -13.43498094 52.13756796 -16 49 C-17.26985582 45.19043254 -17.20146051 41.57766624 -17.23828125 37.60546875 C-17.246353 36.78049393 -17.25442474 35.9555191 -17.26274109 35.10554504 C-17.27656573 33.35969128 -17.28729513 31.61381068 -17.29516602 29.86791992 C-17.31236972 27.20764533 -17.35626773 24.54861692 -17.40039062 21.88867188 C-17.41051904 20.19011328 -17.41903468 18.49154415 -17.42578125 16.79296875 C-17.44328934 16.00214401 -17.46079742 15.21131927 -17.47883606 14.39653015 C-17.45833462 9.13620059 -16.46326001 6.18663741 -13 2 C-9.00141986 -0.73420697 -4.67795181 -0.66595842 0 0 Z " fill="#111111" transform="translate(546,976)"/>
<path d="M0 0 C2.97 0 5.94 0 9 0 C10.31942999 4.03943738 11.6293099 8.08190991 12.9375 12.125 C13.31068359 13.26710938 13.68386719 14.40921875 14.06835938 15.5859375 C14.42607422 16.69453125 14.78378906 17.803125 15.15234375 18.9453125 C15.6472229 20.46922607 15.6472229 20.46922607 16.15209961 22.02392578 C17 25 17 25 18 31 C18.33 20.77 18.66 10.54 19 0 C21.64 0 24.28 0 27 0 C27 17.49 27 34.98 27 53 C24.03 53 21.06 53 18 53 C16.68300898 48.93894205 15.37219603 44.87591589 14.0625 40.8125 C13.50272461 39.08676758 13.50272461 39.08676758 12.93164062 37.32617188 C12.39506836 35.65844727 12.39506836 35.65844727 11.84765625 33.95703125 C11.51773682 32.93585205 11.18781738 31.91467285 10.84790039 30.86254883 C10 28 10 28 9 23 C8.67 32.9 8.34 42.8 8 53 C5.36 53 2.72 53 0 53 C0 35.51 0 18.02 0 0 Z " fill="#0B0B0B" transform="translate(578,977)"/>
<path d="M0 0 C2.97 0 5.94 0 9 0 C9.33 5.61 9.66 11.22 10 17 C10.556875 15.68 11.11375 14.36 11.6875 13 C12.44776145 11.32848442 13.21897642 9.66191575 14 8 C14.36222656 7.21496094 14.72445312 6.42992187 15.09765625 5.62109375 C16.24875005 3.43986855 17.23099797 1.72305393 19 0 C21.95042257 -0.69777219 23.93266508 -0.41590982 27 0 C25.89063311 2.93954068 24.64526909 5.70946182 23.23828125 8.5234375 C22.92439453 9.1525 22.61050781 9.7815625 22.28710938 10.4296875 C21.63811707 11.72507094 20.97662455 13.01426778 20.30273438 14.296875 C18.02901816 18.92939452 17.68967511 21.84528578 19 27 C19.89791238 29.53512388 20.8257607 31.96997422 21.875 34.4375 C22.41710821 35.75372448 22.95877901 37.0701292 23.5 38.38671875 C23.995 39.57910156 24.49 40.77148438 25 42 C28 49.46691176 28 49.46691176 28 53 C25.36 53 22.72 53 20 53 C16.8936214 46.43117569 14.16163513 39.93998648 12 33 C9.64641749 35.35358251 9.72128096 35.92968394 9.5859375 39.1328125 C9.52792969 40.34130859 9.52792969 40.34130859 9.46875 41.57421875 C9.42234375 42.83685547 9.42234375 42.83685547 9.375 44.125 C9.31699219 45.39923828 9.31699219 45.39923828 9.2578125 46.69921875 C9.16343506 48.79911684 9.08062414 50.89952891 9 53 C6.03 53 3.06 53 0 53 C0 35.51 0 18.02 0 0 Z " fill="#111111" transform="translate(718,977)"/>
<path d="M0 0 C2.64 0 5.28 0 8 0 C9.10532262 4.12103697 9.50643265 8.26570703 9.9375 12.5 C10.70125339 19.71841877 11.68371947 26.858478 13 34 C15.11472193 30.45222475 15.55312183 27.11544164 16.0703125 23.046875 C16.15626678 22.38665344 16.24222107 21.72643188 16.33078003 21.04620361 C16.60232862 18.94827726 16.86379795 16.84923708 17.125 14.75 C17.30792884 13.32283128 17.49151539 11.89574671 17.67578125 10.46875 C18.12480865 6.98010873 18.56480888 3.49039745 19 0 C21.64 0 24.28 0 27 0 C26.480599 9.17100152 25.26370369 18.04066471 23.5625 27.0625 C23.12564386 29.42826397 22.68944002 31.79414848 22.25390625 34.16015625 C22.0439502 35.29340332 21.83399414 36.42665039 21.61767578 37.59423828 C20.68797926 42.72043059 19.84187152 47.85871023 19 53 C15.37 53 11.74 53 8 53 C6.85033063 46.90040774 5.71138115 40.79894382 4.58203125 34.69555664 C4.19690356 32.62242594 3.80892575 30.5498225 3.41796875 28.4777832 C2.85434693 25.48785574 2.30123015 22.49613994 1.75 19.50390625 C1.57500977 18.58791153 1.40001953 17.67191681 1.21972656 16.72816467 C0.18775857 11.0567206 -0.16405952 5.76515405 0 0 Z " fill="#0A0A0A" transform="translate(370,977)"/>
<path d="M0 0 C3.02925924 2.74075836 3.81493323 4.40567281 4.625 8.375 C4.75 11.25 4.75 11.25 4.625 13.375 C2.315 13.375 0.005 13.375 -2.375 13.375 C-3.035 11.395 -3.695 9.415 -4.375 7.375 C-6.355 7.375 -8.335 7.375 -10.375 7.375 C-10.93460226 11.13232946 -11.0225388 13.27842388 -9.0625 16.59765625 C-6.15361389 20.38310402 -3.01781556 23.77414297 0.4375 27.0625 C4.65811614 31.19794676 5.67408771 35.06823633 6.0625 40.875 C5.98866023 44.24322942 5.47760841 46.16644818 3.375 48.8125 C-0.86897668 52.76711463 -3.37813783 53.86536275 -9.34765625 53.6875 C-12.80156706 53.15510527 -14.79344495 51.65637423 -17.375 49.375 C-20.05943011 45.25887383 -20.72365757 42.256206 -20.375 37.375 C-17.735 37.375 -15.095 37.375 -12.375 37.375 C-11.715 39.685 -11.055 41.995 -10.375 44.375 C-8.37545254 44.41754356 -6.37458364 44.41580783 -4.375 44.375 C-3.04728145 43.24192461 -3.04728145 43.24192461 -2.875 40.3125 C-3.58838589 34.6945861 -6.51820373 32.30654039 -10.375 28.375 C-11.65542935 26.94604084 -12.92665231 25.50876647 -14.1875 24.0625 C-14.75082031 23.42699219 -15.31414062 22.79148437 -15.89453125 22.13671875 C-19.82162532 17.46358042 -19.79536333 14.18291702 -19.6953125 8.265625 C-19.28060486 4.52314138 -18.26149908 2.7804159 -15.375 0.375 C-10.66373636 -3.15844773 -4.96954513 -2.39274395 0 0 Z " fill="#0D0D0D" transform="translate(469.375,977.625)"/>
<path d="M0 0 C7.92 0 15.84 0 24 0 C24 2.31 24 4.62 24 7 C23 8 23 8 19.83984375 8.09765625 C16.2265625 8.06510417 12.61328125 8.03255208 9 8 C9 12.62 9 17.24 9 22 C12.63 22 16.26 22 20 22 C20 24.31 20 26.62 20 29 C16.04 29 12.08 29 8 29 C8.33 34.28 8.66 39.56 9 45 C15.93 45.495 15.93 45.495 23 46 C23 48.31 23 50.62 23 53 C15.41 53 7.82 53 0 53 C0 35.51 0 18.02 0 0 Z " fill="#111111" transform="translate(673,977)"/>
<path d="M0 0 C3.64188418 2.13391651 6.21290945 4.78656873 8.5 8.3125 C9.3659411 12.9669334 9.3689964 17.66726967 6.91796875 21.84375 C4.45829907 24.87560869 1.90830209 27.65468819 -2.05078125 28.37109375 C-6.17689896 28.49224056 -9.10608133 28.42183778 -12.4375 25.8125 C-16.65876808 21.17940089 -17.4697401 17.35841994 -17.31640625 11.21484375 C-16.66644737 6.66513162 -14.16854579 3.97378816 -10.75 1.125 C-7.06483162 -0.38256888 -3.86555212 -0.90781906 0 0 Z " fill="#F5F5F5" transform="translate(688,1047)"/>
<path d="M0 0 C7.48069241 4.23435419 7.48069241 4.23435419 8.625 8.125 C9.83076923 17.36923077 9.83076923 17.36923077 7.3125 22.3125 C3.74159362 26.46247228 1.5392249 27.80454287 -3.9375 28.5 C-8.72261037 28.31004288 -10.77886228 26.45121898 -14 23 C-16.2926391 19.03998701 -16.38954791 15.51875572 -16 11 C-14.70273608 6.74785715 -13.58656425 4.51990922 -10.25 1.5625 C-6.39497128 -0.29087919 -4.22989818 -0.60427117 0 0 Z " fill="#F4F4F4" transform="translate(578,1047)"/>
<path d="M0 0 C8.25 0 16.5 0 25 0 C25 2.31 25 4.62 25 7 C22.03 7 19.06 7 16 7 C16 22.18 16 37.36 16 53 C13.36 53 10.72 53 8 53 C8 37.82 8 22.64 8 7 C5.36 7 2.72 7 0 7 C0 4.69 0 2.38 0 0 Z " fill="#070707" transform="translate(627,977)"/>
<path d="M0 0 C2.74508144 3.37200691 5.31132955 6.81936461 7.8125 10.375 C19.38985589 26.20655796 34.95604347 34.63223338 53.99609375 38.62890625 C65.39719615 40.03736493 76.05941719 39.48723896 87.125 36.3125 C87.97650635 36.06878662 88.8280127 35.82507324 89.70532227 35.57397461 C105.1616615 30.77446227 117.44129474 20.88700179 127 8 C127.57621094 7.23300781 128.15242187 6.46601562 128.74609375 5.67578125 C129.36677734 4.84626953 129.36677734 4.84626953 130 4 C130.99 4.495 130.99 4.495 132 5 C125.61708205 14.30479865 118.85239251 23.18961467 109 29 C110.60405221 35.04527177 113.79272273 40.01180622 117 45.3125 C118.17347837 47.27195502 119.34665175 49.23159271 120.51953125 51.19140625 C121.10428223 52.16480957 121.6890332 53.13821289 122.29150391 54.14111328 C123.88173784 56.80210775 125.4521921 59.47326426 127.01171875 62.15234375 C127.46611328 62.93246826 127.92050781 63.71259277 128.38867188 64.51635742 C129.23689172 65.97507233 130.08332672 67.43482697 130.92773438 68.89575195 C132.46164605 71.522935 133.83882863 73.83882863 136 76 C135.01 76.33 134.02 76.66 133 77 C131.98404237 75.27287202 130.96808818 73.54574202 129.95214844 71.81860352 C129.05702288 70.296923 128.16183929 68.77527663 127.26660156 67.25366211 C124.94983516 63.31572507 122.6339166 59.3772959 120.3203125 55.4375 C119.89202148 54.70853516 119.46373047 53.97957031 119.02246094 53.22851562 C118.17890194 51.79258787 117.33579768 50.35639286 116.49316406 48.91992188 C113.70475491 44.17359853 110.86488521 39.46195601 107.9609375 34.78515625 C107 33 107 33 107 31 C106.33871094 31.45439453 106.33871094 31.45439453 105.6640625 31.91796875 C89.98145582 41.68204379 68.64880281 44.33259789 50.75 40.8125 C45.14811852 39.46958321 39.96557575 37.54908682 34.71875 35.18359375 C31.8582909 33.93830768 28.97074629 32.94801757 26 32 C25.65855957 32.6077124 25.31711914 33.2154248 24.96533203 33.84155273 C13.41052697 54.39052516 13.41052697 54.39052516 7.5 64.4375 C7.11602051 65.09097412 6.73204102 65.74444824 6.33642578 66.41772461 C3.63231989 70.99249528 0.83377993 75.50455423 -2 80 C-2.33 79.34 -2.66 78.68 -3 78 C-3.66 77.67 -4.32 77.34 -5 77 C-4.38125 76.938125 -3.7625 76.87625 -3.125 76.8125 C-2.073125 76.4103125 -2.073125 76.4103125 -1 76 C-0.30563429 74.34468176 0.35350743 72.67459535 1 71 C2.34671462 68.4993577 3.71529697 66.02687415 5.125 63.5625 C5.52243408 62.86237793 5.91986816 62.16225586 6.3293457 61.44091797 C7.15023896 59.99608063 7.97259172 58.55207156 8.79638672 57.10888672 C9.92106146 55.13831058 11.04132152 53.16530227 12.16015625 51.19140625 C15.66184899 45.02639561 19.22137932 38.91033747 22.96875 32.890625 C24.15961738 31.06629941 24.15961738 31.06629941 24 29 C22.57772021 27.79455251 22.57772021 27.79455251 20.6875 26.5625 C11.17796578 19.60348029 3.92522791 11.74406256 -1 1 C-0.67 0.67 -0.34 0.34 0 0 Z " fill="#D6D6D6" transform="translate(487,646)"/>
<path d="M0 0 C2.64 0 5.28 0 8 0 C8 17.49 8 34.98 8 53 C5.36 53 2.72 53 0 53 C0 35.51 0 18.02 0 0 Z " fill="#0C0C0C" transform="translate(497,977)"/>
<path d="M0 0 C2.64 0 5.28 0 8 0 C8 17.49 8 34.98 8 53 C5.36 53 2.72 53 0 53 C0 35.51 0 18.02 0 0 Z " fill="#0A0A0A" transform="translate(419,977)"/>
<path d="M0 0 C0.33 0 0.66 0 1 0 C1.27080102 26.32948452 1.50699529 52.65908283 1.70202446 78.98924255 C1.79338691 91.21488031 1.89606036 103.44022742 2.02539062 115.66552734 C2.13808979 126.32144223 2.22953716 136.97729166 2.29549801 147.63360214 C2.33116382 153.27582144 2.37744748 158.91750166 2.44918442 164.55938721 C2.51639275 169.87152534 2.55514716 175.18311707 2.57224464 180.49564552 C2.58349971 182.44356981 2.6050807 184.39146654 2.63785744 186.33914757 C2.92694926 204.13689141 2.92694926 204.13689141 -2.44424248 209.73602295 C-4.64202051 211.52161033 -6.755337 213.08686191 -9.25 214.4375 C-10.10078125 214.91058594 -10.9515625 215.38367188 -11.828125 215.87109375 C-18.29508985 219.23251973 -25.734808 218.87068747 -32.83203125 217.421875 C-39.59429065 215.07904497 -44.64885361 210.62972927 -49 205 C-50.34550502 201.28153559 -50.09417816 197.46589232 -50.02172852 193.56933594 C-50.01212097 192.82748047 -50.00251343 192.085625 -49.99261475 191.32128906 C-49.95970218 188.87555213 -49.91934057 186.42999817 -49.87890625 183.984375 C-49.85459756 182.28615967 -49.83075437 180.58793762 -49.80735779 178.88970947 C-49.7445914 174.4246046 -49.67550371 169.95961906 -49.60510254 165.49462891 C-49.5343518 160.93657862 -49.46957519 156.37844387 -49.40429688 151.8203125 C-49.27538052 142.8801155 -49.13978645 133.94003318 -49 125 C-48.67 125 -48.34 125 -48 125 C-48.00079559 125.96164566 -48.00159119 126.92329132 -48.00241089 127.91407776 C-48.0060186 136.99200936 -47.97814549 146.06937575 -47.9197216 155.1471262 C-47.8906916 159.8137955 -47.87262183 164.47996337 -47.87988281 169.14672852 C-47.8864868 173.65343818 -47.86393094 178.15915793 -47.82144547 182.66566277 C-47.81033316 184.38194186 -47.80959721 186.09832157 -47.81957626 187.81460762 C-48.28066049 198.26953188 -48.28066049 198.26953188 -44.17626953 207.46069336 C-37.21086381 213.80092769 -30.22159492 215.31538243 -21.0390625 215.21484375 C-12.93769901 214.64212525 -7.96405174 210.97702626 -2.35695171 205.35157394 C-0.38779894 201.93906611 -0.57739625 198.64533155 -0.60127258 194.81231689 C-0.59462576 193.97993807 -0.58797893 193.14755924 -0.58113068 192.28995681 C-0.56245732 189.49689168 -0.56510888 186.7042533 -0.56762695 183.91113281 C-0.55861244 181.91056206 -0.548286 179.90999685 -0.53674316 177.90943909 C-0.50911056 172.4738844 -0.49988013 167.03843433 -0.49388909 161.60281849 C-0.48452172 155.9239517 -0.45831968 150.24516356 -0.43388367 144.56634521 C-0.3901699 133.81066471 -0.36165288 123.05499943 -0.33856028 112.29925704 C-0.31153475 100.05509574 -0.26762162 87.81101337 -0.22227156 75.56690836 C-0.12935541 50.37798167 -0.05770659 25.18903022 0 0 Z " fill="#EFEFEF" transform="translate(576,420)"/>
<path d="M0 0 C2.7225 -0.0825 5.445 -0.165 8.25 -0.25 C9.10110352 -0.28641602 9.95220703 -0.32283203 10.82910156 -0.36035156 C14.56073701 -0.41515057 16.41777922 -0.42532951 19.5078125 1.83203125 C21 4 21 4 21.625 6.9375 C20.72128648 11.36569625 18.63099081 12.42804818 15 15 C15.42152344 15.45890625 15.84304688 15.9178125 16.27734375 16.390625 C16.82519531 17.00421875 17.37304688 17.6178125 17.9375 18.25 C18.48277344 18.85328125 19.02804687 19.4565625 19.58984375 20.078125 C21.06212799 22.08467305 21.57529189 23.57002449 22 26 C19.67578125 25.78125 19.67578125 25.78125 17 25 C15.48046875 22.96875 15.48046875 22.96875 14.1875 20.5 C12.17846691 17.06702556 12.17846691 17.06702556 8.83984375 15.18359375 C6.39579642 14.86436833 6.39579642 14.86436833 3 15 C3 18.63 3 22.26 3 26 C2.01 26 1.02 26 0 26 C0 17.42 0 8.84 0 0 Z " fill="#242424" transform="translate(449,1048)"/>
<path d="M0 0 C2.9375 0.1875 2.9375 0.1875 3.9375 1.1875 C4.05086626 3.83036274 4.10167761 6.44611456 4.10546875 9.08984375 C4.10879715 9.88274307 4.11212555 10.6756424 4.11555481 11.49256897 C4.12062726 13.17301858 4.12296304 14.85347829 4.12280273 16.53393555 C4.12498786 19.11068259 4.14313609 21.68700076 4.16210938 24.26367188 C4.16504345 25.8932277 4.16702815 27.52278556 4.16796875 29.15234375 C4.17515427 29.92634018 4.18233978 30.70033661 4.18974304 31.49778748 C4.16632253 36.95867747 4.16632253 36.95867747 1.9375 39.1875 C-0.5625 39.4375 -0.5625 39.4375 -3.0625 39.1875 C-5.57954805 36.67045195 -5.30919599 35.11077101 -5.34039307 31.67590332 C-5.3363446 30.92691772 -5.33229614 30.17793213 -5.328125 29.40625 C-5.33003845 28.63696167 -5.3319519 27.86767334 -5.33392334 27.07507324 C-5.33528508 25.4476692 -5.33158939 23.8202543 -5.32324219 22.19287109 C-5.31254221 19.69734369 -5.32313751 17.20253618 -5.3359375 14.70703125 C-5.3346159 13.12760257 -5.3320535 11.54817434 -5.328125 9.96875 C-5.33217346 9.2197644 -5.33622192 8.47077881 -5.34039307 7.69909668 C-5.27339865 0.32286114 -5.27339865 0.32286114 0 0 Z " fill="#F8F8F8" transform="translate(542.0625,983.8125)"/>
<path d="M0 0 C3.4375 1.6875 3.4375 1.6875 6 4 C6.875 6.75 6.875 6.75 7 9 C5.68 9 4.36 9 3 9 C3 7.68 3 6.36 3 5 C-4.06431653 4.42167975 -4.06431653 4.42167975 -10.6875 6.375 C-12.72436207 10.44872415 -12.61570022 14.53259373 -12 19 C-11.05616134 21.24485567 -11.05616134 21.24485567 -10 23 C-8.20841511 23.02696365 -6.41671527 23.04637917 -4.625 23.0625 C-3.12839844 23.07990234 -3.12839844 23.07990234 -1.6015625 23.09765625 C0.98432453 23.18006602 0.98432453 23.18006602 3 22 C3.65555119 19.47266765 3.65555119 19.47266765 4 17 C1.36 17 -1.28 17 -4 17 C-4 16.01 -4 15.02 -4 14 C-0.04 14 3.92 14 8 14 C8 17.3 8 20.6 8 24 C2.662757 27.63386757 -1.51765156 29.16894808 -8 28 C-12.38299083 25.80850458 -15.20074724 23.59809038 -17 19 C-17.68426057 13.95674616 -17.5739862 10.16923116 -15.3125 5.5625 C-10.85292124 0.62080462 -6.70622256 -1.17882818 0 0 Z " fill="#262626" transform="translate(491,1047)"/>
<path d="M0 0 C5 1 5 1 6.46972656 2.45874023 C6.85612305 3.06919189 7.24251953 3.67964355 7.640625 4.30859375 C8.07117188 4.97310547 8.50171875 5.63761719 8.9453125 6.32226562 C9.37585938 7.02029297 9.80640625 7.71832031 10.25 8.4375 C10.69601562 9.13166016 11.14203125 9.82582031 11.6015625 10.54101562 C13.16573682 12.98918543 14.70023075 15.40046149 16 18 C16.33 12.06 16.66 6.12 17 0 C18.32 0 19.64 0 21 0 C21 8.58 21 17.16 21 26 C16 25 16 25 14.42260742 23.44946289 C13.98795166 22.7971167 13.5532959 22.14477051 13.10546875 21.47265625 C12.62529297 20.76302734 12.14511719 20.05339844 11.65039062 19.32226562 C11.16763672 18.57654297 10.68488281 17.83082031 10.1875 17.0625 C9.43436523 15.9497168 9.43436523 15.9497168 8.66601562 14.81445312 C5 9.3129358 5 9.3129358 5 7 C4.34 7 3.68 7 3 7 C3 13.27 3 19.54 3 26 C2.01 26 1.02 26 0 26 C0 17.42 0 8.84 0 0 Z " fill="#202020" transform="translate(397,1048)"/>
<path d="M0 0 C5 1 5 1 6.46972656 2.47460938 C6.85612305 3.09142578 7.24251953 3.70824219 7.640625 4.34375 C8.07117188 5.01277344 8.50171875 5.68179687 8.9453125 6.37109375 C9.37585938 7.07363281 9.80640625 7.77617188 10.25 8.5 C11.12973841 9.88571512 12.00992352 11.27114677 12.890625 12.65625 C13.58671875 13.7596875 14.2828125 14.863125 15 16 C15.33 16.33 15.66 16.66 16 17 C16.33 11.39 16.66 5.78 17 0 C18.32 0 19.64 0 21 0 C21 8.58 21 17.16 21 26 C16 25 16 25 14.54614258 23.55712891 C14.16611084 22.95304199 13.7860791 22.34895508 13.39453125 21.7265625 C12.96849609 21.0665625 12.54246094 20.4065625 12.10351562 19.7265625 C11.67748047 19.03304688 11.25144531 18.33953125 10.8125 17.625 C10.37486328 16.93921875 9.93722656 16.2534375 9.48632812 15.546875 C8.67247026 14.26955303 7.86485599 12.98821522 7.06567383 11.70166016 C6.07264317 10.11599608 5.03781434 8.55672151 4 7 C3.67 13.27 3.34 19.54 3 26 C2.01 26 1.02 26 0 26 C0 17.42 0 8.84 0 0 Z " fill="#272727" transform="translate(701,1048)"/>
<path d="M0 0 C3.64188418 2.13391651 6.21290945 4.78656873 8.5 8.3125 C9.3659411 12.9669334 9.3689964 17.66726967 6.91796875 21.84375 C4.45829907 24.87560869 1.90830209 27.65468819 -2.05078125 28.37109375 C-6.17689896 28.49224056 -9.10608133 28.42183778 -12.4375 25.8125 C-16.65876808 21.17940089 -17.4697401 17.35841994 -17.31640625 11.21484375 C-16.66644737 6.66513162 -14.16854579 3.97378816 -10.75 1.125 C-7.06483162 -0.38256888 -3.86555212 -0.90781906 0 0 Z M-11.5625 5.9375 C-13.50569323 10.07734644 -13.68575555 13.50177015 -13 18 C-11.37599816 21.63467079 -10.33886956 22.77408696 -7 25 C-2.84130536 24.70295038 -0.49592778 24.33061852 3 22 C5.47519565 18.48261671 5.29426149 15.19322624 5 11 C3.88441117 7.13834634 3.42754276 6.28502851 0 4 C-4.46119123 3.21949693 -7.89527606 3.16472092 -11.5625 5.9375 Z " fill="#272727" transform="translate(688,1047)"/>
<path d="M0 0 C6.27 0 12.54 0 19 0 C19 0.99 19 1.98 19 3 C14.05 3 9.1 3 4 3 C4 5.64 4 8.28 4 11 C8.62 11 13.24 11 18 11 C18 11.99 18 12.98 18 14 C13.38 14 8.76 14 4 14 C4 16.97 4 19.94 4 23 C9.28 23 14.56 23 20 23 C20 24.32 20 25.64 20 27 C13.4 27 6.8 27 0 27 C0 18.09 0 9.18 0 0 Z " fill="#212121" transform="translate(372,1048)"/>
<path d="M0 0 C3 1.75 3 1.75 5 4 C5 5.32 5 6.64 5 8 C4.01 8 3.02 8 2 8 C1.34 7.01 0.68 6.02 0 5 C-2.20725073 4.63637182 -2.20725073 4.63637182 -4.625 4.8125 C-5.44226563 4.83957031 -6.25953125 4.86664062 -7.1015625 4.89453125 C-8.04128906 4.94673828 -8.04128906 4.94673828 -9 5 C-9.33 6.65 -9.66 8.3 -10 10 C-9.18015625 10.18175781 -8.3603125 10.36351562 -7.515625 10.55078125 C-6.43796875 10.80214844 -5.3603125 11.05351563 -4.25 11.3125 C-3.18265625 11.55613281 -2.1153125 11.79976562 -1.015625 12.05078125 C1.97156448 12.99104944 3.76617071 13.82439849 6 16 C6.625 19.375 6.625 19.375 6 23 C3.36822256 26.17162922 1.79778158 27.64044368 -2.2265625 28.4453125 C-6.19669031 28.64448279 -8.49583725 28.28359155 -12 26.3125 C-14.18168017 23.78993231 -14.72608098 22.2870282 -15 19 C-13.68 19 -12.36 19 -11 19 C-10.34 20.65 -9.68 22.3 -9 24 C-5.7 23.67 -2.4 23.34 1 23 C1.33 21.35 1.66 19.7 2 18 C1.18015625 17.75765625 0.3603125 17.5153125 -0.484375 17.265625 C-2.10085938 16.76289062 -2.10085938 16.76289062 -3.75 16.25 C-4.81734375 15.92515625 -5.8846875 15.6003125 -6.984375 15.265625 C-10.18813847 13.92104033 -11.87967048 12.7364059 -14 10 C-14.0625 6.4375 -14.0625 6.4375 -13 3 C-9.28476428 -0.49006992 -4.87034403 -0.89355102 0 0 Z " fill="#1F1F1F" transform="translate(552,1047)"/>
<path d="M0 0 C2.875 1.1875 2.875 1.1875 5 3 C5.8125 5.6875 5.8125 5.6875 6 8 C5.01 8 4.02 8 3 8 C2.34 7.01 1.68 6.02 1 5 C-1.43693311 4.63583953 -1.43693311 4.63583953 -4.125 4.8125 C-5.03507813 4.83957031 -5.94515625 4.86664062 -6.8828125 4.89453125 C-7.58148437 4.92933594 -8.28015625 4.96414063 -9 5 C-8.43261222 7.48327609 -8.43261222 7.48327609 -7 10 C-4.26202388 11.36205548 -4.26202388 11.36205548 -1.0625 12.125 C5.94982053 14.050619 5.94982053 14.050619 8 17 C7.87507069 20.49802066 7.72647123 23.00935741 5.625 25.875 C1.85266877 28.48661393 -2.58119485 28.74895002 -7 28 C-9.64520572 26.60778647 -10.93026358 25.27671006 -13 23 C-13 21.68 -13 20.36 -13 19 C-12.01 19 -11.02 19 -10 19 C-9.443125 19.99 -9.443125 19.99 -8.875 21 C-7.20196347 23.21342165 -7.20196347 23.21342165 -4.80859375 23.265625 C-2.52777834 23.2513476 -0.27411894 23.17163162 2 23 C2.33 21.35 2.66 19.7 3 18 C1.75283203 17.61908203 1.75283203 17.61908203 0.48046875 17.23046875 C-0.60621094 16.88628906 -1.69289063 16.54210938 -2.8125 16.1875 C-4.43091797 15.68283203 -4.43091797 15.68283203 -6.08203125 15.16796875 C-8.85385262 14.05849808 -10.26722758 13.38921522 -12 11 C-12.5 7.5625 -12.5 7.5625 -12 4 C-8.43754928 -0.21016903 -5.35404223 -0.66925528 0 0 Z " fill="#1D1D1D" transform="translate(740,1047)"/>
<path d="M0 0 C6.6 0 13.2 0 20 0 C20 0.99 20 1.98 20 3 C14.72 3 9.44 3 4 3 C4 5.64 4 8.28 4 11 C8.95 11 13.9 11 19 11 C19 11.99 19 12.98 19 14 C14.05 14 9.1 14 4 14 C4 16.97 4 19.94 4 23 C9.61 23 15.22 23 21 23 C21 23.99 21 24.98 21 26 C14.07 26 7.14 26 0 26 C0 17.42 0 8.84 0 0 Z " fill="#1F1F1F" transform="translate(423,1048)"/>
<path d="M0 0 C7.48069241 4.23435419 7.48069241 4.23435419 8.625 8.125 C9.83076923 17.36923077 9.83076923 17.36923077 7.3125 22.3125 C3.74159362 26.46247228 1.5392249 27.80454287 -3.9375 28.5 C-8.72261037 28.31004288 -10.77886228 26.45121898 -14 23 C-16.2926391 19.03998701 -16.38954791 15.51875572 -16 11 C-14.70273608 6.74785715 -13.58656425 4.51990922 -10.25 1.5625 C-6.39497128 -0.29087919 -4.22989818 -0.60427117 0 0 Z M-12 8 C-12.97105517 12.58413708 -13.28457897 17.75766074 -10.89453125 21.9296875 C-8.21397127 24.47370421 -6.06513328 24.99657193 -2.4375 25.1875 C1.02446278 23.99154922 2.9445925 22.79294938 5.125 19.81640625 C7.04867568 15.82306164 6.60646396 11.77274081 5.1875 7.625 C3.47461012 5.28104542 1.74964081 4.11872764 -1.12109375 3.6640625 C-2.26771484 3.64472656 -2.26771484 3.64472656 -3.4375 3.625 C-4.58025391 3.58246094 -4.58025391 3.58246094 -5.74609375 3.5390625 C-8.93883064 4.19199656 -10.06481662 5.40969886 -12 8 Z " fill="#141414" transform="translate(578,1047)"/>
<path d="M0 0 C1.32 0 2.64 0 4 0 C4.02505615 0.63091553 4.0501123 1.26183105 4.07592773 1.91186523 C4.19154137 4.75396825 4.31442316 7.59571083 4.4375 10.4375 C4.47681641 11.43072266 4.51613281 12.42394531 4.55664062 13.44726562 C4.59853516 14.39150391 4.64042969 15.33574219 4.68359375 16.30859375 C4.72025146 17.18314209 4.75690918 18.05769043 4.79467773 18.95874023 C4.78181066 20.9927402 4.78181066 20.9927402 6 22 C8.06664006 22.23790731 8.06664006 22.23790731 10.4375 22.25 C11.64212891 22.28867188 11.64212891 22.28867188 12.87109375 22.328125 C13.57363281 22.21984375 14.27617188 22.1115625 15 22 C17.05127844 18.92308234 17.27260872 18.06355001 17.4140625 14.55078125 C17.45273437 13.70322266 17.49140625 12.85566406 17.53125 11.98242188 C17.5621875 11.10134766 17.593125 10.22027344 17.625 9.3125 C17.66367187 8.41982422 17.70234375 7.52714844 17.7421875 6.60742188 C17.83640218 4.4051538 17.92201588 2.20289278 18 0 C18.99 0 19.98 0 21 0 C21.14575327 3.39537852 21.23421542 6.78994902 21.3125 10.1875 C21.35439453 11.14720703 21.39628906 12.10691406 21.43945312 13.09570312 C21.56384506 20.28555721 21.56384506 20.28555721 18.54296875 24.11328125 C17.70378906 24.73589844 16.86460937 25.35851563 16 26 C15.67 26.33 15.34 26.66 15 27 C10.699361 27.53212775 7.15492551 27.82917729 3.5625 25.25 C1.00738832 21.57063918 -0.25648077 18.97957676 -0.1953125 14.453125 C-0.18886719 13.60878906 -0.18242188 12.76445313 -0.17578125 11.89453125 C-0.15902344 11.02183594 -0.14226563 10.14914062 -0.125 9.25 C-0.11597656 8.36183594 -0.10695313 7.47367188 -0.09765625 6.55859375 C-0.07414577 4.37211942 -0.04128499 2.18619906 0 0 Z " fill="#2A2A2A" transform="translate(612,1048)"/>
<path d="M0 0 C0.33 0 0.66 0 1 0 C0.99920441 0.96164566 0.99840881 1.92329132 0.99758911 2.91407776 C0.9939814 11.99200936 1.02185451 21.06937575 1.0802784 30.1471262 C1.1093084 34.8137955 1.12737817 39.47996337 1.12011719 44.14672852 C1.1135132 48.65343818 1.13606906 53.15915793 1.17855453 57.66566277 C1.18966684 59.38194186 1.19040279 61.09832157 1.18042374 62.81460762 C0.71933951 73.26953188 0.71933951 73.26953188 4.82373047 82.46069336 C11.78913619 88.80092769 18.77840508 90.31538243 27.9609375 90.21484375 C35.12821992 89.70815926 39.87953869 86.88230032 45 82 C46.00573778 80.67098936 47.00795408 79.33926199 48 78 C48.66 78 49.32 78 50 78 C46.9839188 85.40310839 39.86597349 89.56701326 33 93 C22.97334605 93.82207781 14.37909969 93.44183232 6.421875 86.87109375 C1.46518621 82.1404175 -0.91281775 79.56637318 -1.08229065 72.63372803 C-1.06750313 71.27886097 -1.04691704 69.92404955 -1.02172852 68.56933594 C-1.01212097 67.82748047 -1.00251343 67.085625 -0.99261475 66.32128906 C-0.95970218 63.87555213 -0.91934057 61.42999817 -0.87890625 58.984375 C-0.85459756 57.28615967 -0.83075437 55.58793762 -0.80735779 53.88970947 C-0.7445914 49.4246046 -0.67550371 44.95961906 -0.60510254 40.49462891 C-0.5343518 35.93657862 -0.46957519 31.37844387 -0.40429688 26.8203125 C-0.27538052 17.8801155 -0.13978645 8.94003318 0 0 Z " fill="#DFDFDF" transform="translate(527,545)"/>
<path d="M0 0 C0.66 0.33 1.32 0.66 2 1 C-4.38291795 10.30479865 -11.14760749 19.18961467 -21 25 C-19.39594779 31.04527177 -16.20727727 36.01180622 -13 41.3125 C-11.82652163 43.27195502 -10.65334825 45.23159271 -9.48046875 47.19140625 C-8.89571777 48.16480957 -8.3109668 49.13821289 -7.70849609 50.14111328 C-6.11826216 52.80210775 -4.5478079 55.47326426 -2.98828125 58.15234375 C-2.53388672 58.93246826 -2.07949219 59.71259277 -1.61132812 60.51635742 C-0.76310828 61.97507233 0.08332672 63.43482697 0.92773438 64.89575195 C2.46164605 67.522935 3.83882863 69.83882863 6 72 C5.01 72.33 4.02 72.66 3 73 C1.98404237 71.27287202 0.96808818 69.54574202 -0.04785156 67.81860352 C-0.94297712 66.296923 -1.83816071 64.77527663 -2.73339844 63.25366211 C-5.05016484 59.31572507 -7.3660834 55.3772959 -9.6796875 51.4375 C-10.10797852 50.70853516 -10.53626953 49.97957031 -10.97753906 49.22851562 C-11.82109806 47.79258787 -12.66420232 46.35639286 -13.50683594 44.91992188 C-16.29524509 40.17359853 -19.13511479 35.46195601 -22.0390625 30.78515625 C-23 29 -23 29 -23 27 C-23.52207031 27.32613281 -24.04414062 27.65226563 -24.58203125 27.98828125 C-30.32303949 31.3966907 -36.30100211 34.19831665 -43 35 C-43.99 34.34 -44.98 33.68 -46 33 C-44.74896484 32.65388672 -44.74896484 32.65388672 -43.47265625 32.30078125 C-26.46931125 27.37312228 -13.59650944 18.28616453 -3 4 C-2.42378906 3.23300781 -1.84757813 2.46601562 -1.25390625 1.67578125 C-0.63322266 0.84626953 -0.63322266 0.84626953 0 0 Z " fill="#D4D4D4" transform="translate(617,650)"/>
<path d="M0 0 C6.93 0 13.86 0 21 0 C21 0.99 21 1.98 21 3 C18.36 3 15.72 3 13 3 C13 10.59 13 18.18 13 26 C11.68 26 10.36 26 9 26 C9 18.41 9 10.82 9 3 C6.03 3 3.06 3 0 3 C0 2.01 0 1.02 0 0 Z " fill="#212121" transform="translate(637,1048)"/>
<path d="M0 0 C3.24519666 0.30406442 4.61900552 0.56280677 6.80078125 3.06640625 C7.29964844 3.89011719 7.79851562 4.71382812 8.3125 5.5625 C8.82425781 6.38878906 9.33601563 7.21507812 9.86328125 8.06640625 C10.23839844 8.70449219 10.61351562 9.34257813 11 10 C14.25524265 6.97727468 16.61820737 3.74281699 19 0 C20.32 0.33 21.64 0.66 23 1 C22.36191406 1.79921875 21.72382812 2.5984375 21.06640625 3.421875 C15.40833045 10.82788194 12.56498589 16.34268673 13 26 C12.01 26 11.02 26 10 26 C10.03222656 25.36835937 10.06445312 24.73671875 10.09765625 24.0859375 C9.98779336 15.61428811 6.63657946 10.48120648 1.93359375 3.7734375 C0 1 0 1 0 0 Z " fill="#171717" transform="translate(502,1048)"/>
<path d="M0 0 C0 0.33 0 0.66 0 1 C-0.886875 1.226875 -1.77375 1.45375 -2.6875 1.6875 C-6.76990801 3.30505789 -8.51096262 4.33965091 -11 8 C-11.69752332 12.11201247 -11.7571428 15.89395633 -11 20 C-8.70142894 22.67818983 -8.70142894 22.67818983 -6 24 C-6 24.66 -6 25.32 -6 26 C-4.02 26.33 -2.04 26.66 0 27 C0 27.33 0 27.66 0 28 C-7.76785714 28.66964286 -7.76785714 28.66964286 -11.375 25.8125 C-14.91019613 22.02478986 -15.83865793 19.74249433 -16.3125 14.625 C-15.82743532 8.99824966 -14.51947494 5.34680734 -10.25 1.5625 C-6.54868183 -0.21697989 -4.05708674 -0.32456694 0 0 Z " fill="#2C2C2C" transform="translate(578,1047)"/>
<path d="M0 0 C0.99 0 1.98 0 3 0 C3 7.59 3 15.18 3 23 C7.29 23 11.58 23 16 23 C16 23.99 16 24.98 16 26 C10.72 26 5.44 26 0 26 C0 17.42 0 8.84 0 0 Z " fill="#121212" transform="translate(592,1048)"/>
<path d="M0 0 C5.61 0 11.22 0 17 0 C13.57905758 2.28062828 12.31812778 2.21925007 8.3125 2.125 C6.82169922 2.09792969 6.82169922 2.09792969 5.30078125 2.0703125 C4.54152344 2.04710937 3.78226562 2.02390625 3 2 C3 5.3 3 8.6 3 12 C4.65 12.33 6.3 12.66 8 13 C8 13.33 8 13.66 8 14 C6.35 14 4.7 14 3 14 C3 17.96 3 21.92 3 26 C2.01 26 1.02 26 0 26 C0 17.42 0 8.84 0 0 Z " fill="#0E0E0E" transform="translate(449,1048)"/>
<path d="M0 0 C3.4375 1.6875 3.4375 1.6875 6 4 C6.875 6.75 6.875 6.75 7 9 C5.68 9 4.36 9 3 9 C3 7.68 3 6.36 3 5 C-4.44284678 4.37979187 -4.44284678 4.37979187 -11.1875 7 C-11.785625 7.66 -12.38375 8.32 -13 9 C-13.33 8.67 -13.66 8.34 -14 8 C-15.00496852 11.01490557 -15.10335303 13.04181692 -15.0625 16.1875 C-15.05347656 17.08855469 -15.04445313 17.98960938 -15.03515625 18.91796875 C-15.02355469 19.60503906 -15.01195312 20.29210938 -15 21 C-17.46996424 18.53003576 -17.32331778 17.66102667 -17.375 14.25 C-17.27012866 9.40494422 -16.31939077 6.67824382 -13 3 C-9.05328204 -0.28893163 -4.99359388 -0.87778017 0 0 Z " fill="#353535" transform="translate(491,1047)"/>
<path d="M0 0 C1.32 0 2.64 0 4 0 C4 8.91 4 17.82 4 27 C2.68 27 1.36 27 0 27 C0 18.09 0 9.18 0 0 Z " fill="#292929" transform="translate(662,1048)"/>
<path d="M0 0 C1.95803507 -0.05389087 3.91648909 -0.09274217 5.875 -0.125 C7.51082031 -0.15980469 7.51082031 -0.15980469 9.1796875 -0.1953125 C12 0 12 0 14 2 C13.44444444 6.55555556 13.44444444 6.55555556 12 8 C9.98035801 8.07244053 7.95832876 8.08377188 5.9375 8.0625 C4.83277344 8.05347656 3.72804688 8.04445313 2.58984375 8.03515625 C1.30787109 8.01775391 1.30787109 8.01775391 0 8 C0 5.36 0 2.72 0 0 Z " fill="#F5F5F5" transform="translate(452,1051)"/>
<path d="M0 0 C2.475 0.495 2.475 0.495 5 1 C7.29013653 4.4352048 7.17842973 5.985331 7 10 C6.01 9.01 5.02 8.02 4 7 C3.67 13.27 3.34 19.54 3 26 C2.01 26 1.02 26 0 26 C0 17.42 0 8.84 0 0 Z " fill="#101010" transform="translate(701,1048)"/>
<path d="M0 0 C0.99 0 1.98 0 3 0 C3 8.58 3 17.16 3 26 C1.35 25.67 -0.3 25.34 -2 25 C-2.33 23.68 -2.66 22.36 -3 21 C-2.01 21 -1.02 21 0 21 C0 14.07 0 7.14 0 0 Z " fill="#131313" transform="translate(415,1048)"/>
<path d="M0 0 C0.33 0 0.66 0 1 0 C1.04898437 0.81984375 1.09796875 1.6396875 1.1484375 2.484375 C1.22320312 3.56203125 1.29796875 4.6396875 1.375 5.75 C1.44460938 6.81734375 1.51421875 7.8846875 1.5859375 8.984375 C1.98482361 11.88947009 2.23166258 13.67097022 4 16 C6.40404738 16.91599427 6.40404738 16.91599427 9.125 17.25 C10.03507812 17.39953125 10.94515625 17.5490625 11.8828125 17.703125 C12.58148438 17.80109375 13.28015625 17.8990625 14 18 C14 18.66 14 19.32 14 20 C5.06290672 20.78091106 5.06290672 20.78091106 0.9375 17.75 C-2.29792504 13.15778381 -2.30025436 9.6047481 -2 4 C-1 1.5625 -1 1.5625 0 0 Z " fill="#161616" transform="translate(477,1054)"/>
<path d="M0 0 C0.99 0 1.98 0 3 0 C3.14575327 3.39537852 3.23421542 6.78994902 3.3125 10.1875 C3.35439453 11.14720703 3.39628906 12.10691406 3.43945312 13.09570312 C3.5608921 20.11487607 3.5608921 20.11487607 1.86474609 22.79150391 C0.48046875 24.17578125 0.48046875 24.17578125 -2 26 C-2 23 -2 23 -1 22 C-0.84285346 20.36743242 -0.74914586 18.72864662 -0.68359375 17.08984375 C-0.62075195 15.60581055 -0.62075195 15.60581055 -0.55664062 14.09179688 C-0.51732422 13.05087891 -0.47800781 12.00996094 -0.4375 10.9375 C-0.39431641 9.89271484 -0.35113281 8.84792969 -0.30664062 7.77148438 C-0.20018775 5.18113116 -0.0981724 2.59067814 0 0 Z " fill="#0A0A0A" transform="translate(630,1048)"/>
<path d="M0 0 C-0.44064732 2.46762498 -0.88239133 3.85788952 -2.5 5.8125 C-4.28608733 8.41721069 -4.48183896 10.12395226 -4.6875 13.25 C-4.75324219 14.14203125 -4.81898438 15.0340625 -4.88671875 15.953125 C-4.92410156 16.62859375 -4.96148438 17.3040625 -5 18 C-6.32 17.67 -7.64 17.34 -9 17 C-9.38434943 12.19563218 -9.47968712 8.90975143 -7.1875 4.5625 C-3.29268293 0 -3.29268293 0 0 0 Z " fill="#1B1B1B" transform="translate(680,1048)"/>
<path d="M0 0 C0.99 0 1.98 0 3 0 C3.44988281 0.64453125 3.89976562 1.2890625 4.36328125 1.953125 C5.84167235 4.22827159 5.84167235 4.22827159 8.48046875 4.609375 C9.82044922 4.67898438 9.82044922 4.67898438 11.1875 4.75 C12.08855469 4.80671875 12.98960937 4.8634375 13.91796875 4.921875 C14.60503906 4.94765625 15.29210937 4.9734375 16 5 C16.33 5.99 16.66 6.98 17 8 C13.26537337 9.24487554 9.87215096 9.65629677 6 9 C3.35479428 7.60778647 2.06973642 6.27671006 0 4 C0 2.68 0 1.36 0 0 Z " fill="#272727" transform="translate(727,1066)"/>
<path d="M0 0 C0.66 0 1.32 0 2 0 C-1.0160812 7.40310839 -8.13402651 11.56701326 -15 15 C-17.37402501 15.07116382 -19.75000677 15.08409085 -22.125 15.0625 C-23.40632812 15.05347656 -24.68765625 15.04445313 -26.0078125 15.03515625 C-27.48894531 15.01775391 -27.48894531 15.01775391 -29 15 C-25.76143386 13.1230163 -23.01173531 12.65619054 -19.3125 12.25 C-10.72074786 10.91770144 -5.11684566 6.9589101 0 0 Z " fill="#E0E0E0" transform="translate(575,623)"/>
<path d="M0 0 C2.875 1.1875 2.875 1.1875 5 3 C5.8125 5.6875 5.8125 5.6875 6 8 C5.01 8 4.02 8 3 8 C2.34 7.01 1.68 6.02 1 5 C-1.20725073 4.63637182 -1.20725073 4.63637182 -3.625 4.8125 C-4.44226563 4.83957031 -5.25953125 4.86664062 -6.1015625 4.89453125 C-7.04128906 4.94673828 -7.04128906 4.94673828 -8 5 C-8.33 3.68 -8.66 2.36 -9 1 C-5.93570224 -0.53214888 -3.3834358 -0.22938548 0 0 Z " fill="#323232" transform="translate(740,1047)"/>
<path d="M0 0 C1.32 0 2.64 0 4 0 C4.66 1.65 5.32 3.3 6 5 C8.97 5 11.94 5 15 5 C15 5.33 15 5.66 15 6 C12.69 6 10.38 6 8 6 C8 6.66 8 7.32 8 8 C10.31 8 12.62 8 15 8 C15 8.33 15 8.66 15 9 C10.43381483 9.35813217 7.07094368 9.60240582 3 7.3125 C0.81831983 4.78993231 0.27391902 3.2870282 0 0 Z " fill="#3C3C3C" transform="translate(537,1066)"/>
<path d="M0 0 C1.32 0 2.64 0 4 0 C5.625 2.375 5.625 2.375 7 5 C7.66 5.66 8.32 6.32 9 7 C8.67 7.66 8.34 8.32 8 9 C10.64 9 13.28 9 16 9 C16 9.33 16 9.66 16 10 C11.30758692 10.46924131 7.36672386 10.83043081 3.5 7.8125 C1.0045553 5.00512471 0.21068592 3.68700366 0 0 Z " fill="#303030" transform="translate(672,1065)"/>
<path d="M0 0 C0.33 1.32 0.66 2.64 1 4 C-3.69978858 8.82029598 -3.69978858 8.82029598 -7.40234375 9.33203125 C-9.62065332 9.31450906 -11.79311543 9.22068846 -14 9 C-14 8.34 -14 7.68 -14 7 C-12.80375 6.773125 -11.6075 6.54625 -10.375 6.3125 C-5.83232692 5.2051224 -3.35967251 3.19168889 0 0 Z " fill="#0D0D0D" transform="translate(694,1065)"/>
<path d="M0 0 C2 2 2 2 2.125 5.125 C2.08375 6.07375 2.0425 7.0225 2 8 C1.34 6.68 0.68 5.36 0 4 C-0.66 4.66 -1.32 5.32 -2 6 C-2.20367187 5.35546875 -2.40734375 4.7109375 -2.6171875 4.046875 C-3.8667935 1.68846128 -3.8667935 1.68846128 -6.8203125 1.390625 C-7.91085937 1.34421875 -9.00140625 1.2978125 -10.125 1.25 C-11.76855469 1.16492187 -11.76855469 1.16492187 -13.4453125 1.078125 C-14.28835938 1.05234375 -15.13140625 1.0265625 -16 1 C-16 0.67 -16 0.34 -16 0 C-14.27185839 -0.19672365 -12.54240803 -0.38196799 -10.8125 -0.5625 C-9.84957031 -0.66691406 -8.88664062 -0.77132813 -7.89453125 -0.87890625 C-5.01842125 -0.99922934 -2.76079812 -0.79629238 0 0 Z " fill="#2A2A2A" transform="translate(468,1050)"/>
<path d="M0 0 C0.51949219 0.39832031 1.03898438 0.79664063 1.57421875 1.20703125 C7.99827393 6.08741328 13.0803483 9.254992 21 11 C21 11.33 21 11.66 21 12 C14.1176823 12.61449265 10.41335411 11.24757849 5 7 C3.13327308 5.4089882 1.61458455 3.86686339 0 2 C0 1.34 0 0.68 0 0 Z " fill="#E5E5E5" transform="translate(529,625)"/>
<path d="M0 0 C0.66 0 1.32 0 2 0 C1.50061251 3.69546741 0.99584888 5.69961604 -2 8 C-4.26171875 8.29296875 -4.26171875 8.29296875 -6.6875 8.1875 C-7.89986328 8.14689453 -7.89986328 8.14689453 -9.13671875 8.10546875 C-9.75160156 8.07066406 -10.36648438 8.03585937 -11 8 C-11 7.34 -11 6.68 -11 6 C-9.39125 5.9071875 -9.39125 5.9071875 -7.75 5.8125 C-3.31365441 4.85129179 -2.5083531 3.6231767 0 0 Z " fill="#0B0B0B" transform="translate(556,1066)"/>
<path d="M0 0 C2 2 2 2 2 6 C0.68 6 -0.64 6 -2 6 C-2 4.68 -2 3.36 -2 2 C-5.3 1.67 -8.6 1.34 -12 1 C-12 0.67 -12 0.34 -12 0 C-3.1409396 -1.32885906 -3.1409396 -1.32885906 0 0 Z " fill="#373737" transform="translate(496,1050)"/>
<path d="M0 0 C2.03833424 1.2739589 4.03852126 2.61061923 6 4 C6 4.66 6 5.32 6 6 C8.97 6.495 8.97 6.495 12 7 C12 7.33 12 7.66 12 8 C5.01057082 8.602537 5.01057082 8.602537 2.1328125 6.88671875 C0.69138998 5.66254412 -0.66278229 4.33721771 -2 3 C-1.34 2.67 -0.68 2.34 0 2 C0 1.34 0 0.68 0 0 Z " fill="#353535" transform="translate(566,1067)"/>
<path d="M0 0 C0.33 0 0.66 0 1 0 C1.33 4.29 1.66 8.58 2 13 C1.34 13 0.68 13 0 13 C-2.32617985 9.36534398 -2.31404687 6.23963281 -2 2 C-1.34 1.34 -0.68 0.68 0 0 Z " fill="#0F0F0F" transform="translate(564,1056)"/>
<path d="M0 0 C1.32 0.33 2.64 0.66 4 1 C3.24266726 2.3410477 2.46867264 3.67269781 1.6875 5 C1.25824219 5.7425 0.82898438 6.485 0.38671875 7.25 C-0.07089844 7.8275 -0.52851562 8.405 -1 9 C-1.99 9 -2.98 9 -4 9 C-4.99 9.495 -4.99 9.495 -6 10 C-4.34832443 6.4213696 -2.21713508 3.25179812 0 0 Z " fill="#222222" transform="translate(521,1048)"/>
<path d="M0 0 C0.66 0.66 1.32 1.32 2 2 C-2.66468458 5.37787504 -8.32509604 7.20059402 -14 8 C-14.99 7.34 -15.98 6.68 -17 6 C-16.10796875 5.73445312 -15.2159375 5.46890625 -14.296875 5.1953125 C-13.12640625 4.84210937 -11.9559375 4.48890625 -10.75 4.125 C-9.58984375 3.77695312 -8.4296875 3.42890625 -7.234375 3.0703125 C-4.64872928 2.21467611 -2.37713126 1.3062454 0 0 Z " fill="#C0C0C0" transform="translate(588,677)"/>
<path d="M0 0 C0.66 0.33 1.32 0.66 2 1 C0.76350005 2.82173657 -0.48970167 4.63214564 -1.75 6.4375 C-2.79414062 7.95150391 -2.79414062 7.95150391 -3.859375 9.49609375 C-5.99753608 11.99711793 -6.79580145 12.71855013 -10 13 C-9.61328125 12.56429687 -9.2265625 12.12859375 -8.828125 11.6796875 C-5.56015499 7.94255348 -2.65859411 4.1923984 0 0 Z " fill="#CECECE" transform="translate(617,650)"/>
<path d="M0 0 C0 0.33 0 0.66 0 1 C-0.9075 1.0825 -1.815 1.165 -2.75 1.25 C-6.45247886 2.1044182 -7.46920206 3.29466427 -10 6 C-10.99 6 -11.98 6 -13 6 C-12.67012361 3.52592708 -12.42027913 2.3362233 -10.4375 0.75 C-6.89085382 -0.34127575 -3.70471601 -0.12349053 0 0 Z " fill="#323232" transform="translate(552,1047)"/>
<path d="M0 0 C6.0546875 -0.1953125 6.0546875 -0.1953125 8 0 C8.66 0.66 9.32 1.32 10 2 C9 3 9 3 6.71484375 3.09765625 C5.34005859 3.08025391 5.34005859 3.08025391 3.9375 3.0625 C3.01839844 3.05347656 2.09929687 3.04445313 1.15234375 3.03515625 C0.44207031 3.02355469 -0.26820313 3.01195312 -1 3 C-0.67 2.01 -0.34 1.02 0 0 Z " fill="#252525" transform="translate(483,1047)"/>
<path d="M0 0 C3.44868587 4.08733141 6.23793154 8.43805907 9 13 C8.01 13 7.02 13 6 13 C4.140625 10.6640625 4.140625 10.6640625 2.25 7.625 C1.61578125 6.62726562 0.9815625 5.62953125 0.328125 4.6015625 C-0.11015625 3.74304688 -0.5484375 2.88453125 -1 2 C-0.67 1.34 -0.34 0.68 0 0 Z " fill="#D1D1D1" transform="translate(487,646)"/>
<path d="M0 0 C-3.00313748 1.50156874 -5.79067522 1.09281204 -9.125 1.0625 C-10.40632812 1.05347656 -11.68765625 1.04445313 -13.0078125 1.03515625 C-14.48894531 1.01775391 -14.48894531 1.01775391 -16 1 C-11.00935223 -1.71812066 -5.00551848 -3.54557559 0 0 Z " fill="#CDCDCD" transform="translate(562,637)"/>
<path d="M0 0 C0.33 0 0.66 0 1 0 C1.0270043 1.45823212 1.04639787 2.91660675 1.0625 4.375 C1.07410156 5.18710938 1.08570313 5.99921875 1.09765625 6.8359375 C1 9 1 9 0 11 C-0.66 11 -1.32 11 -2 11 C-2.28571429 3.57142857 -2.28571429 3.57142857 0 0 Z " fill="#020202" transform="translate(477,1054)"/>
<path d="M0 0 C2.375 -0.125 2.375 -0.125 5 0 C7 2 7 2 7 6 C4 6 4 6 1.8125 4.125 C0 2 0 2 0 0 Z " fill="#161616" transform="translate(739,1049)"/>
<path d="M0 0 C0.33 0 0.66 0 1 0 C1.125 2.875 1.125 2.875 1 6 C0.34 6.66 -0.32 7.32 -1 8 C-3.125 7.625 -3.125 7.625 -5 7 C-4.19152271 5.83054208 -3.37810888 4.66449539 -2.5625 3.5 C-2.11003906 2.8503125 -1.65757812 2.200625 -1.19140625 1.53125 C-0.79824219 1.0259375 -0.40507812 0.520625 0 0 Z " fill="#0D0D0D" transform="translate(468,1053)"/>
<path d="M0 0 C0.66 1.32 1.32 2.64 2 4 C1.34 4 0.68 4 0 4 C-0.268125 4.7425 -0.53625 5.485 -0.8125 6.25 C-1.94229421 8.86636554 -3.20893202 10.80187111 -5 13 C-5.33 12.34 -5.66 11.68 -6 11 C-4.78515625 8.3984375 -4.78515625 8.3984375 -3.0625 5.375 C-2.21365234 3.87066406 -2.21365234 3.87066406 -1.34765625 2.3359375 C-0.90292969 1.56507813 -0.45820313 0.79421875 0 0 Z " fill="#808080" transform="translate(392,884)"/>
<path d="M0 0 C0.6875 1.6875 0.6875 1.6875 1 4 C-0.25 6.6875 -0.25 6.6875 -2 9 C-2.99 9.33 -3.98 9.66 -5 10 C-3.66511872 6.40608886 -2.03977277 3.24509304 0 0 Z " fill="#5C5C5C" transform="translate(652,496)"/>
<path d="M0 0 C0.33 0.99 0.66 1.98 1 3 C-0.9375 6.1875 -0.9375 6.1875 -3 9 C-3.33 8.34 -3.66 7.68 -4 7 C-4.66 6.67 -5.32 6.34 -6 6 C-5.38125 5.938125 -4.7625 5.87625 -4.125 5.8125 C-1.72238859 5.171081 -1.72238859 5.171081 -0.75 2.4375 C-0.5025 1.633125 -0.255 0.82875 0 0 Z " fill="#DFDFDF" transform="translate(488,717)"/>
</svg>
